<svg xmlns="http://www.w3.org/2000/svg" width="45.582" height="33.454" viewBox="0 0 45.582 33.454">
  <g id="zipcap_icon_svg" data-name="zipcap icon svg" transform="translate(-0.021 -0.04)">
    <path id="Path_486" data-name="Path 486" d="M85.97,127.447l-7.412-7.428h0a16.709,16.709,0,0,0-13.7-23.943l.1-.055L41.909,96a1.177,1.177,0,0,0-.834,2.008l7.409,7.423h0a16.707,16.707,0,0,0,13.705,23.943l-.1.057,23.042.024a1.176,1.176,0,0,0,.836-2.007Zm-22.447-4a10.717,10.717,0,1,1,10.716-10.717,10.718,10.718,0,0,1-10.716,10.717Z" transform="translate(-40.71 -95.96)" fill="#ff5773"/>
    <path id="Path_487" data-name="Path 487" d="M203.025,196.73a5.765,5.765,0,1,0,5.765,5.765A5.765,5.765,0,0,0,203.025,196.73Zm4.08,7.46a4.293,4.293,0,0,1-3.372,2.554v1.135l-.708-.568-.708.568V206.7a4.281,4.281,0,1,1,4.786-5.889.708.708,0,0,1-.653.979h0a.709.709,0,0,1-.653-.43,2.867,2.867,0,1,0,0,2.273.709.709,0,0,1,1.305.555Z" transform="translate(-180.212 -185.733)" fill="#ff5773"/>
  </g>
</svg>
